<svg width="60" height="60" viewBox="0 0 60 60" fill="none" xmlns="http://www.w3.org/2000/svg">
<mask id="path-1-inside-1_221_157" fill="white">
<path d="M60 30.9677V5.80645H46.4516V0H13.5484V5.80645H0V30.9677H5.80645V45.6214C4.14173 46.0537 2.90323 47.5559 2.90323 49.3548C2.90323 51.4897 4.6393 53.2258 6.77419 53.2258C8.57217 53.2258 10.0753 51.9882 10.5077 50.3226H19.3548V51.9882L21.7317 52.7797L20.6108 55.02L24.3348 58.744L26.5742 57.6241L27.3666 60H32.6325L33.4249 57.6241L35.6642 58.744L39.3882 55.02L38.2674 52.7797L40.6452 51.9882V50.3226H49.4923C49.9247 51.9882 51.4278 53.2258 53.2258 53.2258C55.3607 53.2258 57.0968 51.4897 57.0968 49.3548C57.0968 47.5559 55.8583 46.0537 54.1935 45.6214V30.9677H60ZM46.4516 29.0323V23.2258H58.0645V29.0323H46.4516ZM16.4516 29.0323H15.4839V21.2903H44.5161V29.0323H16.4516ZM46.4516 15.4839H58.0645V21.2903H46.4516V15.4839ZM44.5161 19.3548H15.4839V11.6129H44.5161V19.3548ZM13.5484 21.2903H1.93548V15.4839H13.5484V21.2903ZM58.0645 7.74194V13.5484H46.4516V7.74194H58.0645ZM44.5161 1.93548V9.67742H15.4839V1.93548H44.5161ZM13.5484 7.74194V13.5484H1.93548V7.74194H13.5484ZM1.93548 23.2258H13.5484V29.0323H1.93548V23.2258ZM6.77419 51.2903C5.70675 51.2903 4.83871 50.4223 4.83871 49.3548C4.83871 48.2874 5.70675 47.4194 6.77419 47.4194C7.84164 47.4194 8.70968 48.2874 8.70968 49.3548C8.70968 50.4223 7.84164 51.2903 6.77419 51.2903ZM10.5077 48.3871C10.1556 47.0333 9.09573 45.9734 7.74194 45.6214V30.9677H29.0323V38.7097H27.3666L26.5742 41.0856L24.3348 39.9657L20.6108 43.6897L21.7317 45.9299L19.3548 46.7214V48.3871H10.5077ZM38.7097 50.5924L36.486 51.3338L36.3234 51.7647C36.2766 51.8876 36.2284 52.0086 36.175 52.1276L35.9874 52.5463L37.0336 54.6387L35.2829 56.3894L33.1905 55.3432L32.7714 55.5308C32.6504 55.5851 32.5285 55.6324 32.4047 55.6811L31.978 55.8446L31.2376 58.0645H28.7615L28.021 55.8446L27.5943 55.6811C27.4705 55.6324 27.3472 55.5842 27.2272 55.5308L26.8085 55.3432L24.7162 56.3894L22.9654 54.6387L24.0116 52.5463L23.824 52.1276C23.7706 52.0086 23.7224 51.8876 23.6757 51.7647L23.5131 51.3338L21.2903 50.5924V48.1163L23.514 47.3749L23.6766 46.944C23.7234 46.8211 23.7716 46.7002 23.825 46.5811L24.0126 46.1624L22.9664 44.0701L24.7171 42.3193L26.8095 43.3655L27.2286 43.1779C27.3496 43.1236 27.4715 43.0763 27.5953 43.0277L28.022 42.8642L28.7624 40.6452H31.2385L31.979 42.8651L32.4057 43.0286C32.5295 43.0773 32.6528 43.1255 32.7728 43.1789L33.1915 43.3665L35.2838 42.3203L37.0346 44.071L35.9884 46.1634L36.176 46.582C36.2294 46.7011 36.2776 46.8221 36.3243 46.9449L36.4869 47.3759L38.7097 48.1173V50.5924ZM55.1613 49.3548C55.1613 50.4223 54.2933 51.2903 53.2258 51.2903C52.1584 51.2903 51.2903 50.4223 51.2903 49.3548C51.2903 48.2874 52.1584 47.4194 53.2258 47.4194C54.2933 47.4194 55.1613 48.2874 55.1613 49.3548ZM52.2581 45.6214C50.9043 45.9734 49.8444 47.0333 49.4923 48.3871H40.6452V46.7214L38.2683 45.9299L39.3892 43.6897L35.6652 39.9657L33.4258 41.0856L32.6334 38.7097H30.9677V30.9677H52.2581V45.6214Z"/>
</mask>
<path d="M60 30.9677V5.80645H46.4516V0H13.5484V5.80645H0V30.9677H5.80645V45.6214C4.14173 46.0537 2.90323 47.5559 2.90323 49.3548C2.90323 51.4897 4.6393 53.2258 6.77419 53.2258C8.57217 53.2258 10.0753 51.9882 10.5077 50.3226H19.3548V51.9882L21.7317 52.7797L20.6108 55.02L24.3348 58.744L26.5742 57.6241L27.3666 60H32.6325L33.4249 57.6241L35.6642 58.744L39.3882 55.02L38.2674 52.7797L40.6452 51.9882V50.3226H49.4923C49.9247 51.9882 51.4278 53.2258 53.2258 53.2258C55.3607 53.2258 57.0968 51.4897 57.0968 49.3548C57.0968 47.5559 55.8583 46.0537 54.1935 45.6214V30.9677H60ZM46.4516 29.0323V23.2258H58.0645V29.0323H46.4516ZM16.4516 29.0323H15.4839V21.2903H44.5161V29.0323H16.4516ZM46.4516 15.4839H58.0645V21.2903H46.4516V15.4839ZM44.5161 19.3548H15.4839V11.6129H44.5161V19.3548ZM13.5484 21.2903H1.93548V15.4839H13.5484V21.2903ZM58.0645 7.74194V13.5484H46.4516V7.74194H58.0645ZM44.5161 1.93548V9.67742H15.4839V1.93548H44.5161ZM13.5484 7.74194V13.5484H1.93548V7.74194H13.5484ZM1.93548 23.2258H13.5484V29.0323H1.93548V23.2258ZM6.77419 51.2903C5.70675 51.2903 4.83871 50.4223 4.83871 49.3548C4.83871 48.2874 5.70675 47.4194 6.77419 47.4194C7.84164 47.4194 8.70968 48.2874 8.70968 49.3548C8.70968 50.4223 7.84164 51.2903 6.77419 51.2903ZM10.5077 48.3871C10.1556 47.0333 9.09573 45.9734 7.74194 45.6214V30.9677H29.0323V38.7097H27.3666L26.5742 41.0856L24.3348 39.9657L20.6108 43.6897L21.7317 45.9299L19.3548 46.7214V48.3871H10.5077ZM38.7097 50.5924L36.486 51.3338L36.3234 51.7647C36.2766 51.8876 36.2284 52.0086 36.175 52.1276L35.9874 52.5463L37.0336 54.6387L35.2829 56.3894L33.1905 55.3432L32.7714 55.5308C32.6504 55.5851 32.5285 55.6324 32.4047 55.6811L31.978 55.8446L31.2376 58.0645H28.7615L28.021 55.8446L27.5943 55.6811C27.4705 55.6324 27.3472 55.5842 27.2272 55.5308L26.8085 55.3432L24.7162 56.3894L22.9654 54.6387L24.0116 52.5463L23.824 52.1276C23.7706 52.0086 23.7224 51.8876 23.6757 51.7647L23.5131 51.3338L21.2903 50.5924V48.1163L23.514 47.3749L23.6766 46.944C23.7234 46.8211 23.7716 46.7002 23.825 46.5811L24.0126 46.1624L22.9664 44.0701L24.7171 42.3193L26.8095 43.3655L27.2286 43.1779C27.3496 43.1236 27.4715 43.0763 27.5953 43.0277L28.022 42.8642L28.7624 40.6452H31.2385L31.979 42.8651L32.4057 43.0286C32.5295 43.0773 32.6528 43.1255 32.7728 43.1789L33.1915 43.3665L35.2838 42.3203L37.0346 44.071L35.9884 46.1634L36.176 46.582C36.2294 46.7011 36.2776 46.8221 36.3243 46.9449L36.4869 47.3759L38.7097 48.1173V50.5924ZM55.1613 49.3548C55.1613 50.4223 54.2933 51.2903 53.2258 51.2903C52.1584 51.2903 51.2903 50.4223 51.2903 49.3548C51.2903 48.2874 52.1584 47.4194 53.2258 47.4194C54.2933 47.4194 55.1613 48.2874 55.1613 49.3548ZM52.2581 45.6214C50.9043 45.9734 49.8444 47.0333 49.4923 48.3871H40.6452V46.7214L38.2683 45.9299L39.3892 43.6897L35.6652 39.9657L33.4258 41.0856L32.6334 38.7097H30.9677V30.9677H52.2581V45.6214Z" fill="#C91226" stroke="white" stroke-width="0.4" mask="url(#path-1-inside-1_221_157)"/>
<path d="M17.5195 3.97061H19.255V5.70609H17.5195V3.97061Z" fill="#C91226" stroke="white" stroke-width="0.2"/>
<path d="M21.3908 3.97061H23.1263V5.70609H21.3908V3.97061Z" fill="#C91226" stroke="white" stroke-width="0.2"/>
<path d="M40.7449 3.97061H42.4804V7.64157H40.7449V3.97061Z" fill="#C91226" stroke="white" stroke-width="0.2"/>
<path d="M36.8736 3.97061H38.6091V7.64157H36.8736V3.97061Z" fill="#C91226" stroke="white" stroke-width="0.2"/>
<path d="M33.0034 3.97061H34.7389V7.64157H33.0034V3.97061Z" fill="#C91226" stroke="white" stroke-width="0.2"/>
<path d="M17.5195 13.6483H19.255V15.3838H17.5195V13.6483Z" fill="#C91226" stroke="white" stroke-width="0.2"/>
<path d="M21.3908 13.6483H23.1263V15.3838H21.3908V13.6483Z" fill="#C91226" stroke="white" stroke-width="0.2"/>
<path d="M40.7449 13.6483H42.4804V17.3193H40.7449V13.6483Z" fill="#C91226" stroke="white" stroke-width="0.2"/>
<path d="M36.8736 13.6483H38.6091V17.3193H36.8736V13.6483Z" fill="#C91226" stroke="white" stroke-width="0.2"/>
<path d="M33.0034 13.6483H34.7389V17.3193H33.0034V13.6483Z" fill="#C91226" stroke="white" stroke-width="0.2"/>
<path d="M17.5195 23.3258H19.255V25.0613H17.5195V23.3258Z" fill="#C91226" stroke="white" stroke-width="0.2"/>
<path d="M21.3908 23.3258H23.1263V25.0613H21.3908V23.3258Z" fill="#C91226" stroke="white" stroke-width="0.2"/>
<path d="M40.7449 23.3258H42.4804V26.9968H40.7449V23.3258Z" fill="#C91226" stroke="white" stroke-width="0.2"/>
<path d="M36.8736 23.3258H38.6091V26.9968H36.8736V23.3258Z" fill="#C91226" stroke="white" stroke-width="0.2"/>
<path d="M33.0034 23.3258H34.7389V26.9968H33.0034V23.3258Z" fill="#C91226" stroke="white" stroke-width="0.2"/>
<path d="M54.2932 9.77749H56.0287V11.513H54.2932V9.77749Z" fill="#C91226" stroke="white" stroke-width="0.2"/>
<path d="M50.4229 9.77749H52.1584V11.513H50.4229V9.77749Z" fill="#C91226" stroke="white" stroke-width="0.2"/>
<path d="M54.2932 17.5189H56.0287V19.2544H54.2932V17.5189Z" fill="#C91226" stroke="white" stroke-width="0.2"/>
<path d="M50.4229 17.5189H52.1584V19.2544H50.4229V17.5189Z" fill="#C91226" stroke="white" stroke-width="0.2"/>
<path d="M54.2932 25.2614H56.0287V26.9969H54.2932V25.2614Z" fill="#C91226" stroke="white" stroke-width="0.2"/>
<path d="M50.4229 25.2614H52.1584V26.9969H50.4229V25.2614Z" fill="#C91226" stroke="white" stroke-width="0.2"/>
<path d="M7.84243 9.77749H9.57792V11.513H7.84243V9.77749Z" fill="#C91226" stroke="white" stroke-width="0.2"/>
<path d="M3.97122 9.77749H5.7067V11.513H3.97122V9.77749Z" fill="#C91226" stroke="white" stroke-width="0.2"/>
<path d="M7.84243 17.5189H9.57792V19.2544H7.84243V17.5189Z" fill="#C91226" stroke="white" stroke-width="0.2"/>
<path d="M3.97122 17.5189H5.7067V19.2544H3.97122V17.5189Z" fill="#C91226" stroke="white" stroke-width="0.2"/>
<path d="M7.84243 25.2614H9.57792V26.9969H7.84243V25.2614Z" fill="#C91226" stroke="white" stroke-width="0.2"/>
<path d="M3.97122 25.2614H5.7067V26.9969H3.97122V25.2614Z" fill="#C91226" stroke="white" stroke-width="0.2"/>
<path d="M25.2609 49.3548C25.2609 46.7421 27.387 44.6161 29.9997 44.6161C32.6123 44.6161 34.7384 46.7421 34.7384 49.3548C34.7384 51.9675 32.6123 54.0935 29.9997 54.0935C27.387 54.0935 25.2609 51.9675 25.2609 49.3548ZM26.9964 49.3548C26.9964 51.0105 28.344 52.358 29.9997 52.358C31.6553 52.358 33.0029 51.0105 33.0029 49.3548C33.0029 47.6991 31.6553 46.3516 29.9997 46.3516C28.344 46.3516 26.9964 47.6991 26.9964 49.3548Z" fill="#C91226" stroke="white" stroke-width="0.2"/>
</svg>
