<?xml version="1.0" standalone="no"?>
<!DOCTYPE svg PUBLIC "-//W3C//DTD SVG 20010904//EN"
 "http://www.w3.org/TR/2001/REC-SVG-20010904/DTD/svg10.dtd">
<svg version="1.0" xmlns="http://www.w3.org/2000/svg"
 width="626.000000pt" height="621.000000pt" viewBox="0 0 626.000000 621.000000"
 preserveAspectRatio="xMidYMid meet">

<g transform="translate(0.000000,621.000000) scale(0.100000,-0.100000)"
fill="#000000" stroke="none">
<path d="M1512 3649 c-256 -83 -417 -320 -398 -585 20 -272 222 -486 494 -524
74 -10 181 -1 252 22 159 50 305 196 360 358 63 186 19 413 -109 561 -52 59
-159 133 -236 161 -88 32 -275 36 -363 7z"/>
<path d="M2980 3656 c-151 -43 -290 -157 -359 -294 -32 -63 -61 -186 -61 -257
0 -81 31 -201 72 -277 40 -75 137 -174 210 -216 122 -68 287 -93 418 -63 162
38 307 154 378 302 84 176 85 331 1 506 -69 145 -204 257 -359 298 -67 18
-237 18 -300 1z"/>
<path d="M4417 3650 c-81 -25 -116 -43 -183 -93 -128 -94 -209 -246 -221 -412
-21 -304 192 -564 495 -604 136 -19 272 13 387 90 114 76 181 165 227 299 27
78 32 244 9 325 -52 184 -196 334 -373 390 -101 32 -251 34 -341 5z"/>
</g>
</svg>
