<svg width="62" height="62" viewBox="0 0 62 62" fill="none" xmlns="http://www.w3.org/2000/svg">
<path d="M11.2707 11.792C9.75706 10.7928 7.7618 10.8478 6.30564 11.9285C5.90289 12.2275 5.81873 12.7964 6.11771 13.199C6.29596 13.4392 6.56999 13.5659 6.84766 13.5659C7.03584 13.5659 7.22559 13.5077 7.38822 13.387C8.23334 12.7597 9.39135 12.728 10.2699 13.3079C10.6885 13.5842 11.2518 13.4691 11.5282 13.0504C11.8045 12.6318 11.6892 12.0685 11.2707 11.792Z" fill="white"/>
<path d="M14.014 8.13439C10.9049 5.93859 6.7463 5.96523 3.66579 8.20051C3.25977 8.49513 3.16955 9.06306 3.46405 9.46909C3.6417 9.71394 3.91876 9.84399 4.19994 9.84399C4.38485 9.84399 4.57145 9.78768 4.73251 9.67071C7.18357 7.89208 10.4925 7.87113 12.9662 9.61815C13.3757 9.90745 13.9424 9.80984 14.2318 9.40031C14.5212 8.99052 14.4236 8.42393 14.014 8.13439Z" fill="white"/>
<path d="M16.6272 4.38785C11.957 1.1004 5.69907 1.12559 1.05549 4.4507C0.647643 4.74266 0.553795 5.3101 0.845873 5.71782C1.02328 5.96558 1.30203 6.09745 1.58503 6.09745C1.768 6.09745 1.95291 6.04223 2.113 5.92756C6.12944 3.05146 11.5421 3.02966 15.5817 5.87319C15.9918 6.16187 16.5585 6.06343 16.8471 5.65328C17.1358 5.24314 17.0373 4.67654 16.6272 4.38785Z" fill="white"/>
<path d="M47.5019 40.7713H9.58203V16.4412C9.58203 15.9396 9.1754 15.533 8.67382 15.533C8.17225 15.533 7.76562 15.9396 7.76562 16.4412V40.7713H3.82027C1.71372 40.7713 0 42.485 0 44.5916V52.3572C0 54.1508 1.24266 55.6588 2.91206 56.0676V58.1816C2.91206 59.2177 3.75488 60.0605 4.79095 60.0605H6.73233C7.76841 60.0605 8.61122 59.2177 8.61122 58.1816V56.1777H9.64403C10.1456 56.1777 10.5522 55.7711 10.5522 55.2695C10.5522 54.7679 10.1457 54.3612 9.64415 54.3612H3.82027C2.71529 54.3612 1.81641 53.4622 1.81641 52.3572V44.5916C1.81641 43.4866 2.71529 42.5877 3.82027 42.5877H47.5019C48.0035 42.5877 48.4101 42.1811 48.4101 41.6795C48.4101 41.1778 48.0035 40.7713 47.5019 40.7713ZM4.72847 56.1776H6.79481V58.1815H6.79493C6.79493 58.216 6.76696 58.2439 6.73245 58.2439H4.79095C4.75644 58.2439 4.72847 58.216 4.72847 58.1815V56.1776Z" fill="white"/>
<path d="M58.1797 40.7713H54.2344V16.4412C54.2344 15.9396 53.8277 15.533 53.3262 15.533C52.8246 15.533 52.418 15.9396 52.418 16.4412V40.7713H41.3843C40.8827 40.7713 40.4761 41.1778 40.4761 41.6795C40.4761 42.1811 40.8827 42.5877 41.3843 42.5877H58.1796C59.2846 42.5877 60.1835 43.4866 60.1835 44.5916V52.3572C60.1835 53.4622 59.2846 54.3612 58.1796 54.3612H3.52725C3.02568 54.3612 2.61905 54.7678 2.61905 55.2694C2.61905 55.771 3.02568 56.1776 3.52725 56.1776H53.3886V58.1815C53.3886 59.2175 54.2315 60.0603 55.2675 60.0603H57.2089C58.245 60.0603 59.0878 59.2175 59.0878 58.1815V56.0675C60.7573 55.6588 62 54.1508 62 52.3572V44.5916C62 42.485 60.2863 40.7713 58.1797 40.7713ZM57.2715 58.1815C57.2715 58.216 57.2434 58.2439 57.209 58.2439H55.2677C55.2332 58.2439 55.2052 58.216 55.2052 58.1815V56.1776H57.2715V58.1815Z" fill="white"/>
<path d="M23.2346 45.6248C21.6635 45.6248 20.3851 46.9031 20.3851 48.4743C20.3851 50.0456 21.6635 51.3239 23.2346 51.3239C24.8058 51.3239 26.0842 50.0455 26.0842 48.4743C26.0842 46.9031 24.8058 45.6248 23.2346 45.6248ZM23.2346 49.5076C22.665 49.5076 22.2015 49.0442 22.2015 48.4745C22.2015 47.9048 22.665 47.4413 23.2346 47.4413C23.8043 47.4413 24.2678 47.9048 24.2678 48.4745C24.2678 49.0441 23.8043 49.5076 23.2346 49.5076Z" fill="white"/>
<path d="M38.7661 45.6248C37.1949 45.6248 35.9165 46.9031 35.9165 48.4743C35.9165 50.0456 37.1949 51.3239 38.7661 51.3239C40.3373 51.3239 41.6157 50.0455 41.6157 48.4743C41.6157 46.9031 40.3373 45.6248 38.7661 45.6248ZM38.7661 49.5076C38.1965 49.5076 37.7329 49.0442 37.7329 48.4745C37.7329 47.9048 38.1965 47.4413 38.7661 47.4413C39.3357 47.4413 39.7993 47.9048 39.7993 48.4745C39.7993 49.0441 39.3357 49.5076 38.7661 49.5076Z" fill="white"/>
<path d="M31.0002 45.625C29.4289 45.625 28.1506 46.9034 28.1506 48.4746C28.1506 50.0459 29.429 51.3242 31.0002 51.3242C32.5714 51.3242 33.8498 50.0458 33.8498 48.4746C33.8498 46.9033 32.5715 45.625 31.0002 45.625ZM31.0002 49.5078C30.4306 49.5078 29.967 49.0443 29.967 48.4746C29.967 47.905 30.4306 47.4414 31.0002 47.4414C31.5698 47.4414 32.0334 47.905 32.0334 48.4746C32.0334 49.0442 31.5698 49.5078 31.0002 49.5078Z" fill="white"/>
<path d="M55.9227 11.792C54.4092 10.7928 52.4139 10.8478 50.9578 11.9285C50.555 12.2275 50.4709 12.7964 50.7698 13.199C50.9481 13.4392 51.2221 13.5659 51.4998 13.5659C51.688 13.5659 51.8777 13.5077 52.0404 13.387C52.8853 12.7597 54.0434 12.728 54.9219 13.3079C55.3405 13.5842 55.9039 13.4691 56.1802 13.0504C56.4565 12.6318 56.3412 12.0685 55.9227 11.792Z" fill="white"/>
<path d="M58.6661 8.13443C55.557 5.93864 51.3984 5.96516 48.3178 8.20055C47.9117 8.49517 47.8215 9.0631 48.116 9.46913C48.2937 9.71398 48.5707 9.84403 48.8519 9.84403C49.0368 9.84403 49.2234 9.78772 49.3845 9.67075C51.8357 7.89224 55.1444 7.87117 57.6181 9.61819C58.0278 9.90737 58.5946 9.80976 58.8839 9.40022C59.1733 8.99056 59.0757 8.42397 58.6661 8.13443Z" fill="white"/>
<path d="M61.2794 4.38784C56.6091 1.10038 50.3513 1.12557 45.7077 4.45081C45.2999 4.74276 45.206 5.31021 45.4981 5.71793C45.6754 5.96557 45.9543 6.09744 46.2373 6.09744C46.4203 6.09744 46.6051 6.04222 46.7652 5.92754C50.7815 3.05157 56.1942 3.02965 60.2339 5.87317C60.644 6.16186 61.2106 6.06341 61.4993 5.65327C61.788 5.24312 61.6896 4.67652 61.2794 4.38784Z" fill="white"/>
</svg>
