<svg width="86" height="81" viewBox="0 0 86 81" fill="none" xmlns="http://www.w3.org/2000/svg">
<path d="M61.4978 18.5128L61.498 18.5128C62.2118 18.3797 62.8994 18.8512 63.033 19.5667C63.1661 20.2818 62.6937 20.9692 61.9796 21.1028C61.9796 21.1028 61.9795 21.1028 61.9795 21.1028L58.7404 21.7058L57.704 21.8987L58.5092 22.5792C70.9564 33.0988 71.676 52.0561 60.1098 63.5215C59.5931 64.0332 58.7601 64.0293 58.2481 63.5123L58.2481 63.5122C57.7361 62.9954 57.74 62.1612 58.2561 61.6497L58.2561 61.6496C68.5214 51.4733 68.1553 34.5934 57.2129 24.9393L56.1248 23.9794L56.3906 25.4058L56.9492 28.4044C56.9492 28.4044 56.9492 28.4045 56.9492 28.4045C57.0758 29.0849 56.6544 29.7411 55.9978 29.9174C55.2525 30.117 54.501 29.6389 54.3607 28.886L52.9741 21.4394L52.974 21.4392C52.8409 20.7255 53.3128 20.0387 54.0275 19.9034C54.0277 19.9034 54.0279 19.9033 54.0281 19.9033L61.4978 18.5128Z" fill="#C91226" stroke="white"/>
<path d="M8.41377 38.4262L8.41365 38.4261C7.92889 37.8855 7.97438 37.0529 8.51617 36.567C9.05797 36.0816 9.89072 36.1279 10.3759 36.6685C10.376 36.6686 10.376 36.6686 10.376 36.6686L12.5747 39.1224L13.2782 39.9076L13.4411 38.866C15.9586 22.7646 31.7802 12.2967 47.5868 16.2188C48.2925 16.3942 48.7222 17.1079 48.5466 17.8139L48.5466 17.814C48.3712 18.52 47.6565 18.9503 46.9512 18.7752L46.9511 18.7752C32.9219 15.2946 18.6914 24.3807 16.1311 38.7467L15.8765 40.1753L16.9571 39.2068L19.2284 37.1711C19.2285 37.1711 19.2285 37.171 19.2285 37.171C19.7441 36.7092 20.5237 36.7281 21.0156 37.1975C21.5734 37.7304 21.5556 38.621 20.9852 39.1322L15.3442 44.1872L15.3441 44.1873C14.8035 44.672 13.9715 44.6258 13.4845 44.0855C13.4843 44.0854 13.4842 44.0852 13.4841 44.0851L8.41377 38.4262Z" fill="#C91226" stroke="white"/>
<path d="M52.4005 74.2523L52.4004 74.2525C52.1588 74.9372 51.4066 75.2969 50.7202 75.0549C50.0343 74.8126 49.6753 74.0598 49.9166 73.3746C49.9167 73.3746 49.9167 73.3745 49.9167 73.3745L51.014 70.2678L51.3651 69.2738L50.3732 69.6309C35.0394 75.1507 18.2621 66.2953 14.1159 50.5459C13.9311 49.8426 14.351 49.1231 15.0546 48.9383L15.0547 48.9382C15.7583 48.7532 16.4788 49.1737 16.6637 49.8765L16.6638 49.8765C20.3441 63.8547 35.1455 71.9776 48.9774 67.3282L50.3528 66.8659L48.9846 66.3828L46.1085 65.3673C46.1084 65.3673 46.1084 65.3673 46.1084 65.3673C45.4558 65.1366 45.0982 64.4436 45.2738 63.7868C45.4736 63.0416 46.2634 62.6298 46.9856 62.8848L54.1279 65.4073L54.1281 65.4073C54.8128 65.6489 55.1716 66.401 54.9314 67.0875C54.9313 67.0877 54.9312 67.0879 54.9312 67.0881L52.4005 74.2523Z" fill="#C91226" stroke="white"/>
<g clip-path="url(#clip0_221_1768)">
<mask id="path-4-outside-1_221_1768" maskUnits="userSpaceOnUse" x="21.2008" y="24.1954" width="39.598" height="39.598" fill="black">
<rect fill="white" x="21.2008" y="24.1954" width="39.598" height="39.598"/>
<path d="M30.7111 37.7912L32.4311 39.5112C32.7076 39.7877 32.7832 40.1676 32.6337 40.5288C32.4843 40.8901 32.1615 41.1052 31.771 41.1056L29.3391 41.1052C28.9816 41.1052 28.6452 41.2448 28.3926 41.4974C28.1397 41.7504 28.0004 42.0864 28.0001 42.4443L28.0001 45.5445C28.0001 46.2594 28.6228 46.8835 29.3391 46.8835L31.7707 46.8835C32.1612 46.8838 32.4853 47.099 32.6337 47.4599C32.7832 47.8211 32.7076 48.2011 32.4311 48.4775L30.7111 50.1975C30.1892 50.7195 30.1892 51.5686 30.7111 52.0905L32.9037 54.283C33.4256 54.805 34.2747 54.805 34.7967 54.283L36.5167 52.563C36.7931 52.2866 37.1731 52.211 37.5343 52.3605C37.8955 52.5086 38.1103 52.833 38.1107 53.2235L38.1107 55.6551C38.1107 56.3714 38.7347 56.9941 39.4497 56.9941L42.5499 56.9941C42.9074 56.9941 43.2438 56.8545 43.4967 56.6016C43.7494 56.3489 43.8886 56.0129 43.889 55.6551L43.8886 53.2232C43.8889 52.8327 44.1045 52.5103 44.4653 52.3605C44.8262 52.2107 45.2065 52.2866 45.483 52.563L47.203 54.283C47.7249 54.805 48.574 54.805 49.0959 54.283L51.2881 52.0908C51.8104 51.5686 51.8104 50.7195 51.2885 50.1975L49.5685 48.4775C49.292 48.2011 49.2164 47.8211 49.3659 47.4599C49.5154 47.0987 49.8381 46.8835 50.2286 46.8832L52.6605 46.8835C53.018 46.8835 53.3544 46.7439 53.607 46.4913C53.86 46.2383 53.9992 45.9023 53.9996 45.5445L53.9996 42.4443C53.9996 41.7286 53.3772 41.1049 52.6605 41.1052L50.2286 41.1056C49.8381 41.1052 49.5157 40.8904 49.3659 40.5288C49.2164 40.1676 49.292 39.7877 49.5685 39.5112L51.2885 37.7912C51.8104 37.2693 51.8104 36.4202 51.2885 35.8983L49.0963 33.706C48.5743 33.1841 47.7252 33.1841 47.2033 33.706L45.4833 35.426C45.2069 35.7025 44.8269 35.7781 44.4657 35.6286C44.1038 35.4792 43.8893 35.1564 43.8889 34.7659L43.8893 32.334C43.8893 31.6177 43.2652 30.995 42.5503 30.995L39.45 30.995C39.0926 30.995 38.7562 31.1346 38.5032 31.3875C38.2506 31.6401 38.1114 31.9762 38.111 32.334L38.1114 34.7659C38.111 35.1564 37.8955 35.4788 37.5346 35.6286C37.1737 35.7784 36.7931 35.7022 36.5167 35.4257L34.7967 33.7057C34.2747 33.1838 33.4256 33.1838 32.9037 33.7057L30.7111 35.8983C30.1892 36.4202 30.1892 37.2693 30.7111 37.7912ZM33.5846 34.3866C33.731 34.2402 33.9693 34.2402 34.1157 34.3866L35.8357 36.1066C36.3886 36.6595 37.1809 36.8172 37.903 36.5179C38.6255 36.219 39.0745 35.5472 39.0742 34.7652L39.0738 32.3333C39.0738 32.1256 39.2424 31.9571 39.4497 31.9575L42.5499 31.9575C42.7569 31.9575 42.9261 32.1253 42.9258 32.3333L42.9254 34.7652C42.9254 35.5476 43.3749 36.2183 44.0966 36.5179C44.8187 36.8172 45.611 36.6595 46.1639 36.1066L47.8839 34.3866C48.0303 34.2402 48.2686 34.2402 48.415 34.3866L50.6076 36.5792C50.754 36.7256 50.754 36.9639 50.6076 37.1103L48.8876 38.8303C48.3347 39.3832 48.177 40.1754 48.4763 40.8976C48.5764 41.14 48.718 41.351 48.8923 41.5254C49.2376 41.8706 49.7084 42.0691 50.2286 42.0691L52.6605 42.0687C52.8689 42.0687 53.0367 42.2379 53.0364 42.4446L53.0364 45.5448C53.0364 45.7525 52.8679 45.921 52.6605 45.9207L50.2286 45.9203C49.4469 45.9203 48.7749 46.3691 48.476 47.0915C48.177 47.8133 48.3347 48.6055 48.8876 49.1585L50.6076 50.8784C50.754 51.0248 50.754 51.2632 50.6076 51.4096L48.415 53.6021C48.2686 53.7485 48.0303 53.7485 47.8839 53.6021L46.1639 51.8821C45.611 51.3292 44.8187 51.1716 44.0966 51.4708C43.3742 51.7698 42.9251 52.4415 42.9255 53.2235L42.9258 55.6554C42.9258 55.8631 42.7573 56.0316 42.5499 56.0313L39.4497 56.0313C39.2424 56.0316 39.0738 55.8631 39.0738 55.6554L39.0738 53.2239C39.0738 52.4429 38.6258 51.7708 37.9027 51.4712C37.1809 51.1716 36.3886 51.3292 35.8357 51.8821L34.1157 53.6021C33.9693 53.7485 33.731 53.7485 33.5846 53.6021L31.3924 51.4099C31.2457 51.2632 31.2457 51.0248 31.3921 50.8785L33.1121 49.1585C33.665 48.6055 33.8226 47.8133 33.5233 47.0912C33.2237 46.3681 32.5523 45.92 31.7707 45.92L29.3391 45.92C29.1311 45.9197 28.9626 45.7511 28.9632 45.5441L28.9632 42.4439C28.9632 42.2362 29.1318 42.0677 29.3391 42.0681L31.771 42.0684C32.5527 42.0684 33.2248 41.6197 33.5237 40.8972C33.8229 40.1751 33.6653 39.3829 33.1124 38.83L31.3924 37.11C31.2457 36.9639 31.2457 36.7256 31.3921 36.5792L33.5846 34.3866Z"/>
</mask>
<path d="M30.7111 37.7912L32.4311 39.5112C32.7076 39.7877 32.7832 40.1676 32.6337 40.5288C32.4843 40.8901 32.1615 41.1052 31.771 41.1056L29.3391 41.1052C28.9816 41.1052 28.6452 41.2448 28.3926 41.4974C28.1397 41.7504 28.0004 42.0864 28.0001 42.4443L28.0001 45.5445C28.0001 46.2594 28.6228 46.8835 29.3391 46.8835L31.7707 46.8835C32.1612 46.8838 32.4853 47.099 32.6337 47.4599C32.7832 47.8211 32.7076 48.2011 32.4311 48.4775L30.7111 50.1975C30.1892 50.7195 30.1892 51.5686 30.7111 52.0905L32.9037 54.283C33.4256 54.805 34.2747 54.805 34.7967 54.283L36.5167 52.563C36.7931 52.2866 37.1731 52.211 37.5343 52.3605C37.8955 52.5086 38.1103 52.833 38.1107 53.2235L38.1107 55.6551C38.1107 56.3714 38.7347 56.9941 39.4497 56.9941L42.5499 56.9941C42.9074 56.9941 43.2438 56.8545 43.4967 56.6016C43.7494 56.3489 43.8886 56.0129 43.889 55.6551L43.8886 53.2232C43.8889 52.8327 44.1045 52.5103 44.4653 52.3605C44.8262 52.2107 45.2065 52.2866 45.483 52.563L47.203 54.283C47.7249 54.805 48.574 54.805 49.0959 54.283L51.2881 52.0908C51.8104 51.5686 51.8104 50.7195 51.2885 50.1975L49.5685 48.4775C49.292 48.2011 49.2164 47.8211 49.3659 47.4599C49.5154 47.0987 49.8381 46.8835 50.2286 46.8832L52.6605 46.8835C53.018 46.8835 53.3544 46.7439 53.607 46.4913C53.86 46.2383 53.9992 45.9023 53.9996 45.5445L53.9996 42.4443C53.9996 41.7286 53.3772 41.1049 52.6605 41.1052L50.2286 41.1056C49.8381 41.1052 49.5157 40.8904 49.3659 40.5288C49.2164 40.1676 49.292 39.7877 49.5685 39.5112L51.2885 37.7912C51.8104 37.2693 51.8104 36.4202 51.2885 35.8983L49.0963 33.706C48.5743 33.1841 47.7252 33.1841 47.2033 33.706L45.4833 35.426C45.2069 35.7025 44.8269 35.7781 44.4657 35.6286C44.1038 35.4792 43.8893 35.1564 43.8889 34.7659L43.8893 32.334C43.8893 31.6177 43.2652 30.995 42.5503 30.995L39.45 30.995C39.0926 30.995 38.7562 31.1346 38.5032 31.3875C38.2506 31.6401 38.1114 31.9762 38.111 32.334L38.1114 34.7659C38.111 35.1564 37.8955 35.4788 37.5346 35.6286C37.1737 35.7784 36.7931 35.7022 36.5167 35.4257L34.7967 33.7057C34.2747 33.1838 33.4256 33.1838 32.9037 33.7057L30.7111 35.8983C30.1892 36.4202 30.1892 37.2693 30.7111 37.7912ZM33.5846 34.3866C33.731 34.2402 33.9693 34.2402 34.1157 34.3866L35.8357 36.1066C36.3886 36.6595 37.1809 36.8172 37.903 36.5179C38.6255 36.219 39.0745 35.5472 39.0742 34.7652L39.0738 32.3333C39.0738 32.1256 39.2424 31.9571 39.4497 31.9575L42.5499 31.9575C42.7569 31.9575 42.9261 32.1253 42.9258 32.3333L42.9254 34.7652C42.9254 35.5476 43.3749 36.2183 44.0966 36.5179C44.8187 36.8172 45.611 36.6595 46.1639 36.1066L47.8839 34.3866C48.0303 34.2402 48.2686 34.2402 48.415 34.3866L50.6076 36.5792C50.754 36.7256 50.754 36.9639 50.6076 37.1103L48.8876 38.8303C48.3347 39.3832 48.177 40.1754 48.4763 40.8976C48.5764 41.14 48.718 41.351 48.8923 41.5254C49.2376 41.8706 49.7084 42.0691 50.2286 42.0691L52.6605 42.0687C52.8689 42.0687 53.0367 42.2379 53.0364 42.4446L53.0364 45.5448C53.0364 45.7525 52.8679 45.921 52.6605 45.9207L50.2286 45.9203C49.4469 45.9203 48.7749 46.3691 48.476 47.0915C48.177 47.8133 48.3347 48.6055 48.8876 49.1585L50.6076 50.8784C50.754 51.0248 50.754 51.2632 50.6076 51.4096L48.415 53.6021C48.2686 53.7485 48.0303 53.7485 47.8839 53.6021L46.1639 51.8821C45.611 51.3292 44.8187 51.1716 44.0966 51.4708C43.3742 51.7698 42.9251 52.4415 42.9255 53.2235L42.9258 55.6554C42.9258 55.8631 42.7573 56.0316 42.5499 56.0313L39.4497 56.0313C39.2424 56.0316 39.0738 55.8631 39.0738 55.6554L39.0738 53.2239C39.0738 52.4429 38.6258 51.7708 37.9027 51.4712C37.1809 51.1716 36.3886 51.3292 35.8357 51.8821L34.1157 53.6021C33.9693 53.7485 33.731 53.7485 33.5846 53.6021L31.3924 51.4099C31.2457 51.2632 31.2457 51.0248 31.3921 50.8785L33.1121 49.1585C33.665 48.6055 33.8226 47.8133 33.5233 47.0912C33.2237 46.3681 32.5523 45.92 31.7707 45.92L29.3391 45.92C29.1311 45.9197 28.9626 45.7511 28.9632 45.5441L28.9632 42.4439C28.9632 42.2362 29.1318 42.0677 29.3391 42.0681L31.771 42.0684C32.5527 42.0684 33.2248 41.6197 33.5237 40.8972C33.8229 40.1751 33.6653 39.3829 33.1124 38.83L31.3924 37.11C31.2457 36.9639 31.2457 36.7256 31.3921 36.5792L33.5846 34.3866Z" fill="#C91226"/>
<path d="M30.7111 37.7912L32.4311 39.5112C32.7076 39.7877 32.7832 40.1676 32.6337 40.5288C32.4843 40.8901 32.1615 41.1052 31.771 41.1056L29.3391 41.1052C28.9816 41.1052 28.6452 41.2448 28.3926 41.4974C28.1397 41.7504 28.0004 42.0864 28.0001 42.4443L28.0001 45.5445C28.0001 46.2594 28.6228 46.8835 29.3391 46.8835L31.7707 46.8835C32.1612 46.8838 32.4853 47.099 32.6337 47.4599C32.7832 47.8211 32.7076 48.2011 32.4311 48.4775L30.7111 50.1975C30.1892 50.7195 30.1892 51.5686 30.7111 52.0905L32.9037 54.283C33.4256 54.805 34.2747 54.805 34.7967 54.283L36.5167 52.563C36.7931 52.2866 37.1731 52.211 37.5343 52.3605C37.8955 52.5086 38.1103 52.833 38.1107 53.2235L38.1107 55.6551C38.1107 56.3714 38.7347 56.9941 39.4497 56.9941L42.5499 56.9941C42.9074 56.9941 43.2438 56.8545 43.4967 56.6016C43.7494 56.3489 43.8886 56.0129 43.889 55.6551L43.8886 53.2232C43.8889 52.8327 44.1045 52.5103 44.4653 52.3605C44.8262 52.2107 45.2065 52.2866 45.483 52.563L47.203 54.283C47.7249 54.805 48.574 54.805 49.0959 54.283L51.2881 52.0908C51.8104 51.5686 51.8104 50.7195 51.2885 50.1975L49.5685 48.4775C49.292 48.2011 49.2164 47.8211 49.3659 47.4599C49.5154 47.0987 49.8381 46.8835 50.2286 46.8832L52.6605 46.8835C53.018 46.8835 53.3544 46.7439 53.607 46.4913C53.86 46.2383 53.9992 45.9023 53.9996 45.5445L53.9996 42.4443C53.9996 41.7286 53.3772 41.1049 52.6605 41.1052L50.2286 41.1056C49.8381 41.1052 49.5157 40.8904 49.3659 40.5288C49.2164 40.1676 49.292 39.7877 49.5685 39.5112L51.2885 37.7912C51.8104 37.2693 51.8104 36.4202 51.2885 35.8983L49.0963 33.706C48.5743 33.1841 47.7252 33.1841 47.2033 33.706L45.4833 35.426C45.2069 35.7025 44.8269 35.7781 44.4657 35.6286C44.1038 35.4792 43.8893 35.1564 43.8889 34.7659L43.8893 32.334C43.8893 31.6177 43.2652 30.995 42.5503 30.995L39.45 30.995C39.0926 30.995 38.7562 31.1346 38.5032 31.3875C38.2506 31.6401 38.1114 31.9762 38.111 32.334L38.1114 34.7659C38.111 35.1564 37.8955 35.4788 37.5346 35.6286C37.1737 35.7784 36.7931 35.7022 36.5167 35.4257L34.7967 33.7057C34.2747 33.1838 33.4256 33.1838 32.9037 33.7057L30.7111 35.8983C30.1892 36.4202 30.1892 37.2693 30.7111 37.7912ZM33.5846 34.3866C33.731 34.2402 33.9693 34.2402 34.1157 34.3866L35.8357 36.1066C36.3886 36.6595 37.1809 36.8172 37.903 36.5179C38.6255 36.219 39.0745 35.5472 39.0742 34.7652L39.0738 32.3333C39.0738 32.1256 39.2424 31.9571 39.4497 31.9575L42.5499 31.9575C42.7569 31.9575 42.9261 32.1253 42.9258 32.3333L42.9254 34.7652C42.9254 35.5476 43.3749 36.2183 44.0966 36.5179C44.8187 36.8172 45.611 36.6595 46.1639 36.1066L47.8839 34.3866C48.0303 34.2402 48.2686 34.2402 48.415 34.3866L50.6076 36.5792C50.754 36.7256 50.754 36.9639 50.6076 37.1103L48.8876 38.8303C48.3347 39.3832 48.177 40.1754 48.4763 40.8976C48.5764 41.14 48.718 41.351 48.8923 41.5254C49.2376 41.8706 49.7084 42.0691 50.2286 42.0691L52.6605 42.0687C52.8689 42.0687 53.0367 42.2379 53.0364 42.4446L53.0364 45.5448C53.0364 45.7525 52.8679 45.921 52.6605 45.9207L50.2286 45.9203C49.4469 45.9203 48.7749 46.3691 48.476 47.0915C48.177 47.8133 48.3347 48.6055 48.8876 49.1585L50.6076 50.8784C50.754 51.0248 50.754 51.2632 50.6076 51.4096L48.415 53.6021C48.2686 53.7485 48.0303 53.7485 47.8839 53.6021L46.1639 51.8821C45.611 51.3292 44.8187 51.1716 44.0966 51.4708C43.3742 51.7698 42.9251 52.4415 42.9255 53.2235L42.9258 55.6554C42.9258 55.8631 42.7573 56.0316 42.5499 56.0313L39.4497 56.0313C39.2424 56.0316 39.0738 55.8631 39.0738 55.6554L39.0738 53.2239C39.0738 52.4429 38.6258 51.7708 37.9027 51.4712C37.1809 51.1716 36.3886 51.3292 35.8357 51.8821L34.1157 53.6021C33.9693 53.7485 33.731 53.7485 33.5846 53.6021L31.3924 51.4099C31.2457 51.2632 31.2457 51.0248 31.3921 50.8785L33.1121 49.1585C33.665 48.6055 33.8226 47.8133 33.5233 47.0912C33.2237 46.3681 32.5523 45.92 31.7707 45.92L29.3391 45.92C29.1311 45.9197 28.9626 45.7511 28.9632 45.5441L28.9632 42.4439C28.9632 42.2362 29.1318 42.0677 29.3391 42.0681L31.771 42.0684C32.5527 42.0684 33.2248 41.6197 33.5237 40.8972C33.8229 40.1751 33.6653 39.3829 33.1124 38.83L31.3924 37.11C31.2457 36.9639 31.2457 36.7256 31.3921 36.5792L33.5846 34.3866Z" stroke="#C91226" stroke-width="0.4" mask="url(#path-4-outside-1_221_1768)"/>
<path d="M37.8652 47.1294C39.5939 48.8581 42.4061 48.8581 44.1348 47.1294C45.8636 45.4006 45.8636 42.5885 44.1348 40.8597C42.4061 39.131 39.5939 39.131 37.8652 40.8597C36.1364 42.5885 36.1364 45.4006 37.8652 47.1294ZM43.3125 41.682C44.5873 42.9568 44.5873 45.0323 43.3125 46.307C42.0377 47.5818 39.9623 47.5818 38.6875 46.307C37.4127 45.0323 37.4127 42.9568 38.6875 41.682C39.9623 40.4073 42.0377 40.4073 43.3125 41.682Z" fill="#C91226" stroke="#C91226" stroke-width="0.2"/>
</g>
<defs>
<clipPath id="clip0_221_1768">
<rect width="26" height="26" fill="white" transform="translate(58.7582 39.2358) rotate(120)"/>
</clipPath>
</defs>
</svg>
