<svg width="54" height="53" viewBox="0 0 54 53" fill="none" xmlns="http://www.w3.org/2000/svg">
<path d="M51.7784 29.9503H51.8784V29.8503V3.04053C51.8784 2.22323 51.2138 1.55854 50.3965 1.55854H7.59917C7.19653 1.55854 6.87002 1.23212 6.87002 0.829393C6.87002 0.426661 7.19644 0.100244 7.59917 0.100244H50.3965C52.0177 0.100244 53.3367 1.4194 53.3368 3.04053V39.5239C53.3368 40.57 52.7735 41.546 51.8672 42.0703L51.9173 42.1569L51.8672 42.0704C51.7521 42.137 51.6266 42.1685 51.5028 42.1685C51.2507 42.1685 51.006 42.0378 50.8709 41.8044C50.6693 41.4558 50.7885 41.0097 51.137 40.808C51.5943 40.5435 51.8784 40.0516 51.8784 39.5239V31.5086V31.4086H51.7784H47.0799C46.6772 31.4086 46.3507 31.0823 46.3507 30.6795C46.3507 30.2768 46.6771 29.9503 47.0799 29.9503H51.7784Z" fill="#F03145" stroke="#2E2E2E" stroke-width="0.2"/>
<path d="M47.0796 39.1478C45.4584 39.1478 44.1393 37.8286 44.1393 36.2075C44.1393 34.5864 45.4584 33.2672 47.0796 33.2672C48.7008 33.2672 50.0199 34.5864 50.0199 36.2075C50.0199 37.8286 48.7008 39.1478 47.0796 39.1478ZM48.5616 36.2076C48.5616 35.3903 47.8969 34.7256 47.0796 34.7256C46.2623 34.7256 45.5976 35.3903 45.5976 36.2076C45.5976 37.0249 46.2623 37.6896 47.0796 37.6896C47.8969 37.6896 48.5616 37.0249 48.5616 36.2076Z" fill="#F03145" stroke="#2E2E2E" stroke-width="0.2"/>
<path d="M2.58017 31.4085H2.48017V31.5085V39.5238C2.48017 40.3411 3.14486 41.0058 3.96216 41.0058H18.3345C18.7372 41.0058 19.0637 41.3321 19.0637 41.7349C19.0637 42.1377 18.7372 42.4641 18.3344 42.4641H3.96216C2.34094 42.4641 1.02188 41.1449 1.02188 39.5238V3.04028C1.02188 1.41916 2.34094 0.1 3.96216 0.1H8.38442C8.78716 0.1 9.11357 0.426417 9.11357 0.829149C9.11357 1.23188 8.78716 1.5583 8.38442 1.5583H3.96216C3.14486 1.5583 2.48017 2.22298 2.48017 3.04028V29.8502V29.9502H2.58017H22.7567C23.1593 29.9502 23.4858 30.2765 23.4858 30.6793C23.4858 31.0822 23.1594 31.4085 22.7567 31.4085H2.58017Z" fill="#F03145" stroke="#2E2E2E" stroke-width="0.2"/>
<path d="M40.0705 38.9072V38.9816L40.1417 39.003L47.4549 41.197C49.6512 41.8558 51.1262 43.8382 51.1262 46.1312V50.5797C51.1262 51.5911 50.3031 52.4144 49.2915 52.4144H44.0999C44.315 52.2442 44.453 51.9809 44.453 51.6852C44.453 51.3896 44.315 51.1262 44.0999 50.9561H49.2915C49.4992 50.9561 49.6679 50.7873 49.6679 50.5797V46.1312C49.6679 44.488 48.6099 43.0659 47.0361 42.5937L47.0073 42.6895L47.0361 42.5937L39.2485 40.2575L39.2344 40.2533H39.2198H30.6186H30.6039L30.5899 40.2575L22.8024 42.5937L22.8311 42.6895L22.8024 42.5937C21.2286 43.0659 20.1706 44.488 20.1706 46.1312V50.5797C20.1706 50.7875 20.3395 50.9561 20.547 50.9561H25.7984H25.8984V50.8561V48.3685C25.8984 47.9657 26.2249 47.6394 26.6275 47.6394C27.0302 47.6394 27.3567 47.9657 27.3567 48.3685V50.8561V50.9561H27.4567H42.2818V51.6852C42.2818 51.9809 42.4198 52.2442 42.635 52.4144H20.5468C19.5353 52.4144 18.7121 51.5912 18.7121 50.5797V46.1312C18.7121 43.8382 20.1871 41.8558 22.3832 41.197L29.6965 39.003L29.7677 38.9816V38.9072V36.3138V36.2506L29.7107 36.2235C29.1255 35.9454 28.5756 35.5896 28.0771 35.1621C26.7433 34.0177 25.8614 32.4308 25.5942 30.6936L24.6726 24.703L24.6638 24.6456L24.6095 24.6248C23.7475 24.2947 23.1343 23.4587 23.1343 22.4827C23.1343 21.8701 23.3727 21.2946 23.8059 20.8614L25.4207 19.2467L25.4374 19.23L25.4448 19.2076L26.5861 15.7838C26.5861 15.7838 26.5861 15.7838 26.5861 15.7838C27.2336 13.8415 28.9533 12.4868 30.9579 12.2869L31.015 12.2812L31.0389 12.2291C31.3289 11.5962 31.9682 11.1559 32.708 11.1559H37.1303C37.8701 11.1559 38.5095 11.5962 38.7994 12.2291L38.8233 12.2812L38.8804 12.2869C40.885 12.4868 42.6047 13.8415 43.2522 15.7838L44.3934 19.2076L44.4009 19.23L44.4176 19.2467L46.0031 20.8321V20.8322L46.0324 20.8615C46.4656 21.2947 46.7039 21.8701 46.7039 22.4827C46.7039 23.4587 46.0907 24.2946 45.2287 24.6248L45.1744 24.6456L45.1656 24.703L44.244 30.6936C43.9768 32.4307 43.0951 34.0177 41.7611 35.1621C41.2626 35.5897 40.7126 35.9456 40.1276 36.2234L40.0705 36.2506V36.3138V38.9072ZM43.5239 50.7561H42.4818V48.3685C42.4818 47.9657 42.8083 47.6394 43.2109 47.6394C43.6136 47.6394 43.9401 47.9657 43.9401 48.3685V50.8543C43.8149 50.7915 43.6735 50.7561 43.5239 50.7561ZM42.4818 50.9561H43.5239C43.9265 50.9561 44.253 51.2824 44.253 51.6852C44.253 52.0881 43.9266 52.4144 43.5239 52.4144H43.2109C42.8083 52.4144 42.4818 52.0881 42.4818 51.6852V50.9561ZM24.8372 21.8926L24.8372 21.8927C24.6799 22.0501 24.5929 22.2599 24.5929 22.4826C24.5929 22.9427 24.967 23.3169 25.4272 23.3169H44.3114V23.317H44.4114C44.8716 23.317 45.2457 22.9429 45.2457 22.4827C45.2457 22.2629 45.1566 22.0481 45.0012 21.8927L43.2481 20.1397C43.1681 20.0597 43.1078 19.9621 43.072 19.8547L41.8688 16.2451C41.4428 14.9672 40.3694 14.0439 39.0846 13.7902L38.9652 13.7666V13.8883V17.4129C38.9652 17.8156 38.6387 18.142 38.236 18.142C37.8334 18.142 37.5069 17.8157 37.5069 17.4129V12.9906C37.5069 12.7828 37.338 12.6142 37.1305 12.6142H32.7082C32.5006 12.6142 32.3318 12.783 32.3318 12.9906V17.4129C32.3318 17.8156 32.0054 18.142 31.6026 18.142C31.2 18.142 30.8735 17.8157 30.8735 17.4129V13.8882V13.7665L30.7541 13.7901C29.4693 14.0438 28.3957 14.9671 27.9697 16.245L26.7665 19.8546L26.7665 19.8546C26.7308 19.9618 26.6704 20.0595 26.5903 20.1396L24.8372 21.8926ZM38.6125 36.8747V36.7513L38.4918 36.7769C37.9937 36.8823 37.4828 36.9366 36.9674 36.9366C36.5645 36.9366 36.2381 36.6101 36.2383 36.2075V36.2074C36.2383 35.8046 36.5647 35.4783 36.9674 35.4783C39.9022 35.4783 42.3567 33.3722 42.803 30.4717L43.6616 24.8906L43.6793 24.7754H43.5627H26.2759H26.1594L26.1771 24.8906L27.0358 30.4717C27.482 33.3724 29.9366 35.4783 32.8714 35.4783H33.8139C34.2165 35.4783 34.543 35.8046 34.543 36.2074C34.543 36.6102 34.2166 36.9366 33.8139 36.9366H32.8714C32.3558 36.9366 31.8451 36.8823 31.347 36.7769L31.2263 36.7513V36.8747V38.6949V38.7949H31.3263H38.5125H38.6125V38.6949V36.8747Z" fill="#F03145" stroke="#2E2E2E" stroke-width="0.2"/>
<path d="M4.33853 36.2075C4.33853 34.5864 5.65759 33.2672 7.27881 33.2672H15.0178C16.639 33.2672 17.9581 34.5864 17.9581 36.2075C17.9581 37.8286 16.639 39.1478 15.0178 39.1478H7.27881C5.65759 39.1478 4.33853 37.8286 4.33853 36.2075ZM15.0177 37.6895C15.835 37.6895 16.4997 37.0248 16.4997 36.2075C16.4997 35.3903 15.835 34.7256 15.0178 34.7255H7.27881C6.46151 34.7255 5.79682 35.3902 5.79682 36.2075C5.79682 37.0248 6.46151 37.6895 7.27881 37.6895H15.0177Z" fill="#F03145" stroke="#2E2E2E" stroke-width="0.2"/>
<path d="M12.0782 10.503V10.403H11.9782H8.93789C8.23105 10.403 7.65591 9.82789 7.65591 9.12105V5.80435C7.65591 5.0975 8.23105 4.52236 8.93789 4.52236H16.6769C17.3837 4.52236 17.9588 5.0975 17.9588 5.80435V6.6335V6.7335H18.0588H45.9742C46.3769 6.7335 46.7034 7.05983 46.7034 7.46265V16.3071C46.7034 16.7099 46.377 17.0362 45.9742 17.0362C45.5716 17.0362 45.2451 16.7099 45.2451 16.3071V8.2918V8.1918H45.1451H18.0588H17.9588V8.2918V9.12094C17.9588 9.82779 17.3837 10.4029 16.6769 10.4029H13.6365H13.5365V10.5029V12.478V12.5398L13.5918 12.5674L17.2501 14.3966L17.2501 14.3966C17.6874 14.615 17.9587 15.0541 17.9587 15.5432V15.9655C17.9587 16.4545 17.6874 16.8937 17.2499 17.1122L17.2499 17.1122L13.5919 18.9413L13.5366 18.9689V19.0307V21.0059V21.1059H13.6366H16.6769C17.3837 21.1059 17.9588 21.681 17.9588 22.3878V23.217V23.317H18.0588H20.5464C20.949 23.317 21.2755 23.6433 21.2755 24.0461C21.2755 24.449 20.9491 24.7753 20.5464 24.7753H18.0588H17.9588V24.8753V25.7044C17.9588 26.4113 17.3837 26.9864 16.6769 26.9864H8.93789C8.23105 26.9864 7.65591 26.4113 7.65591 25.7044V22.3877C7.65591 21.6809 8.23105 21.1058 8.93789 21.1058H11.9783H12.0783V21.0058V19.0309V18.9691L12.023 18.9415L8.36465 17.1123L8.36462 17.1123C7.92735 16.8939 7.65601 16.4548 7.65601 15.9657V15.5434C7.65601 15.0543 7.92734 14.6152 8.36482 14.3967L8.36486 14.3967L12.0229 12.5676L12.0782 12.54V12.4782V10.503ZM16.5004 22.6641V22.5641H16.4004H9.21431H9.11431V22.6641V25.4279V25.5279H9.21431H16.4004H16.5004V25.4279V22.6641ZM16.5004 15.7141V15.6523L16.4452 15.6247L12.852 13.8281L12.8073 13.8058L12.7626 13.8281L9.16949 15.6247L9.11421 15.6523V15.7141V15.7948V15.8566L9.16949 15.8842L12.7626 17.6808L12.8073 17.7031L12.852 17.6808L16.4452 15.8842L16.5004 15.8566V15.7948V15.7141ZM16.4004 8.94463H16.5004V8.84463V6.08066V5.98066H16.4004H9.21431H9.11431V6.08066V8.84463V8.94463H9.21431H12.8073H16.4004Z" fill="#F03145" stroke="#2E2E2E" stroke-width="0.2"/>
<path d="M22.7571 39.1478C21.1359 39.1478 19.8168 37.8286 19.8168 36.2075C19.8168 34.5864 21.1359 33.2672 22.7571 33.2672C24.3783 33.2672 25.6974 34.5864 25.6974 36.2075C25.6974 37.8286 24.3783 39.1478 22.7571 39.1478ZM22.7571 37.6895C23.5744 37.6895 24.2391 37.0248 24.2391 36.2075C24.2391 35.3903 23.5744 34.7255 22.7571 34.7255C21.9398 34.7255 21.2751 35.3902 21.2751 36.2075C21.2751 37.0248 21.9398 37.6895 22.7571 37.6895Z" fill="#F03145" stroke="#2E2E2E" stroke-width="0.2"/>
</svg>
