<svg width="38" height="38" viewBox="0 0 38 38" fill="none" xmlns="http://www.w3.org/2000/svg">
<mask id="path-1-inside-1_221_1908" fill="white">
<path d="M37.2749 19.5944V4.15369H28.9607V0.590454H8.76904V4.15369H0.454834V19.5944H4.01807V28.5868C2.99648 28.8522 2.23645 29.774 2.23645 30.8779C2.23645 32.1881 3.30182 33.2534 4.61194 33.2534C5.7153 33.2534 6.63772 32.494 6.90304 31.4718H12.3323V32.494L13.7909 32.9797L13.103 34.3545L15.3883 36.6398L16.7625 35.9525L17.2488 37.4105H20.4803L20.9666 35.9525L22.3408 36.6398L24.6261 34.3545L23.9383 32.9797L25.3975 32.494V31.4718H30.8267C31.092 32.494 32.0144 33.2534 33.1178 33.2534C34.4279 33.2534 35.4933 32.1881 35.4933 30.8779C35.4933 29.774 34.7333 28.8522 33.7117 28.5868V19.5944H37.2749ZM28.9607 18.4066V14.8434H36.0872V18.4066H28.9607ZM10.5507 18.4066H9.95679V13.6556H27.773V18.4066H10.5507ZM28.9607 10.0924H36.0872V13.6556H28.9607V10.0924ZM27.773 12.4679H9.95679V7.71692H27.773V12.4679ZM8.76904 13.6556H1.64258V10.0924H8.76904V13.6556ZM36.0872 5.34143V8.90466H28.9607V5.34143H36.0872ZM27.773 1.7782V6.52918H9.95679V1.7782H27.773ZM8.76904 5.34143V8.90466H1.64258V5.34143H8.76904ZM1.64258 14.8434H8.76904V18.4066H1.64258V14.8434ZM4.61194 32.0657C3.95688 32.0657 3.42419 31.533 3.42419 30.8779C3.42419 30.2229 3.95688 29.6902 4.61194 29.6902C5.267 29.6902 5.79968 30.2229 5.79968 30.8779C5.79968 31.533 5.267 32.0657 4.61194 32.0657ZM6.90304 30.2841C6.68701 29.4533 6.03659 28.8029 5.20581 28.5868V19.5944H18.271V24.3453H17.2488L16.7625 25.8033L15.3883 25.1161L13.103 27.4014L13.7909 28.7762L12.3323 29.2619V30.2841H6.90304ZM24.2097 31.6374L22.8451 32.0924L22.7453 32.3568C22.7166 32.4322 22.6871 32.5064 22.6543 32.5795L22.5392 32.8364L23.1812 34.1205L22.1068 35.1948L20.8228 34.5528L20.5656 34.6679C20.4914 34.7013 20.4165 34.7303 20.3406 34.7601L20.0787 34.8605L19.6243 36.2228H18.1048L17.6504 34.8605L17.3886 34.7601C17.3126 34.7303 17.2369 34.7007 17.1633 34.6679L16.9064 34.5528L15.6224 35.1948L14.548 34.1205L15.19 32.8364L15.0749 32.5795C15.0421 32.5064 15.0125 32.4322 14.9838 32.3568L14.8841 32.0924L13.52 31.6374V30.1179L14.8847 29.6629L14.9844 29.3985C15.0131 29.3231 15.0427 29.2488 15.0755 29.1758L15.1906 28.9189L14.5486 27.6348L15.6229 26.5605L16.9069 27.2025L17.1642 27.0874C17.2384 27.054 17.3132 27.025 17.3892 26.9951L17.651 26.8948L18.1054 25.5331H19.6249L20.0793 26.8954L20.3411 26.9957C20.4171 27.0256 20.4928 27.0552 20.5665 27.0879L20.8234 27.2031L22.1074 26.5611L23.1818 27.6354L22.5397 28.9194L22.6549 29.1764C22.6876 29.2494 22.7172 29.3237 22.7459 29.3991L22.8457 29.6635L24.2097 30.1185V31.6374ZM34.3055 30.8779C34.3055 31.533 33.7729 32.0657 33.1178 32.0657C32.4627 32.0657 31.9301 31.533 31.9301 30.8779C31.9301 30.2229 32.4627 29.6902 33.1178 29.6902C33.7729 29.6902 34.3055 30.2229 34.3055 30.8779ZM32.5239 28.5868C31.6931 28.8029 31.0427 29.4533 30.8267 30.2841H25.3975V29.2619L23.9389 28.7762L24.6267 27.4014L22.3414 25.1161L20.9672 25.8033L20.4809 24.3453H19.4587V19.5944H32.5239V28.5868Z"/>
</mask>
<path d="M37.2749 19.5944V4.15369H28.9607V0.590454H8.76904V4.15369H0.454834V19.5944H4.01807V28.5868C2.99648 28.8522 2.23645 29.774 2.23645 30.8779C2.23645 32.1881 3.30182 33.2534 4.61194 33.2534C5.7153 33.2534 6.63772 32.494 6.90304 31.4718H12.3323V32.494L13.7909 32.9797L13.103 34.3545L15.3883 36.6398L16.7625 35.9525L17.2488 37.4105H20.4803L20.9666 35.9525L22.3408 36.6398L24.6261 34.3545L23.9383 32.9797L25.3975 32.494V31.4718H30.8267C31.092 32.494 32.0144 33.2534 33.1178 33.2534C34.4279 33.2534 35.4933 32.1881 35.4933 30.8779C35.4933 29.774 34.7333 28.8522 33.7117 28.5868V19.5944H37.2749ZM28.9607 18.4066V14.8434H36.0872V18.4066H28.9607ZM10.5507 18.4066H9.95679V13.6556H27.773V18.4066H10.5507ZM28.9607 10.0924H36.0872V13.6556H28.9607V10.0924ZM27.773 12.4679H9.95679V7.71692H27.773V12.4679ZM8.76904 13.6556H1.64258V10.0924H8.76904V13.6556ZM36.0872 5.34143V8.90466H28.9607V5.34143H36.0872ZM27.773 1.7782V6.52918H9.95679V1.7782H27.773ZM8.76904 5.34143V8.90466H1.64258V5.34143H8.76904ZM1.64258 14.8434H8.76904V18.4066H1.64258V14.8434ZM4.61194 32.0657C3.95688 32.0657 3.42419 31.533 3.42419 30.8779C3.42419 30.2229 3.95688 29.6902 4.61194 29.6902C5.267 29.6902 5.79968 30.2229 5.79968 30.8779C5.79968 31.533 5.267 32.0657 4.61194 32.0657ZM6.90304 30.2841C6.68701 29.4533 6.03659 28.8029 5.20581 28.5868V19.5944H18.271V24.3453H17.2488L16.7625 25.8033L15.3883 25.1161L13.103 27.4014L13.7909 28.7762L12.3323 29.2619V30.2841H6.90304ZM24.2097 31.6374L22.8451 32.0924L22.7453 32.3568C22.7166 32.4322 22.6871 32.5064 22.6543 32.5795L22.5392 32.8364L23.1812 34.1205L22.1068 35.1948L20.8228 34.5528L20.5656 34.6679C20.4914 34.7013 20.4165 34.7303 20.3406 34.7601L20.0787 34.8605L19.6243 36.2228H18.1048L17.6504 34.8605L17.3886 34.7601C17.3126 34.7303 17.2369 34.7007 17.1633 34.6679L16.9064 34.5528L15.6224 35.1948L14.548 34.1205L15.19 32.8364L15.0749 32.5795C15.0421 32.5064 15.0125 32.4322 14.9838 32.3568L14.8841 32.0924L13.52 31.6374V30.1179L14.8847 29.6629L14.9844 29.3985C15.0131 29.3231 15.0427 29.2488 15.0755 29.1758L15.1906 28.9189L14.5486 27.6348L15.6229 26.5605L16.9069 27.2025L17.1642 27.0874C17.2384 27.054 17.3132 27.025 17.3892 26.9951L17.651 26.8948L18.1054 25.5331H19.6249L20.0793 26.8954L20.3411 26.9957C20.4171 27.0256 20.4928 27.0552 20.5665 27.0879L20.8234 27.2031L22.1074 26.5611L23.1818 27.6354L22.5397 28.9194L22.6549 29.1764C22.6876 29.2494 22.7172 29.3237 22.7459 29.3991L22.8457 29.6635L24.2097 30.1185V31.6374ZM34.3055 30.8779C34.3055 31.533 33.7729 32.0657 33.1178 32.0657C32.4627 32.0657 31.9301 31.533 31.9301 30.8779C31.9301 30.2229 32.4627 29.6902 33.1178 29.6902C33.7729 29.6902 34.3055 30.2229 34.3055 30.8779ZM32.5239 28.5868C31.6931 28.8029 31.0427 29.4533 30.8267 30.2841H25.3975V29.2619L23.9389 28.7762L24.6267 27.4014L22.3414 25.1161L20.9672 25.8033L20.4809 24.3453H19.4587V19.5944H32.5239V28.5868Z" fill="#AFAFAF" stroke="#AFAFAF" stroke-width="0.4" mask="url(#path-1-inside-1_221_1908)"/>
<path d="M11.2445 3.06594H12.2323V4.05369H11.2445V3.06594Z" fill="#AFAFAF" stroke="#AFAFAF" stroke-width="0.2"/>
<path d="M13.6199 3.06594H14.6076V4.05369H13.6199V3.06594Z" fill="#AFAFAF" stroke="#AFAFAF" stroke-width="0.2"/>
<path d="M25.4977 3.06594H26.4854V5.24143H25.4977V3.06594Z" fill="#AFAFAF" stroke="#AFAFAF" stroke-width="0.2"/>
<path d="M23.122 3.06594H24.1097V5.24143H23.122V3.06594Z" fill="#AFAFAF" stroke="#AFAFAF" stroke-width="0.2"/>
<path d="M20.7464 3.06594H21.7341V5.24143H20.7464V3.06594Z" fill="#AFAFAF" stroke="#AFAFAF" stroke-width="0.2"/>
<path d="M11.2445 9.00466H12.2323V9.99241H11.2445V9.00466Z" fill="#AFAFAF" stroke="#AFAFAF" stroke-width="0.2"/>
<path d="M13.6199 9.00466H14.6076V9.99241H13.6199V9.00466Z" fill="#AFAFAF" stroke="#AFAFAF" stroke-width="0.2"/>
<path d="M25.4977 9.00466H26.4854V11.1802H25.4977V9.00466Z" fill="#AFAFAF" stroke="#AFAFAF" stroke-width="0.2"/>
<path d="M23.122 9.00466H24.1097V11.1802H23.122V9.00466Z" fill="#AFAFAF" stroke="#AFAFAF" stroke-width="0.2"/>
<path d="M20.7464 9.00466H21.7341V11.1802H20.7464V9.00466Z" fill="#AFAFAF" stroke="#AFAFAF" stroke-width="0.2"/>
<path d="M11.2445 14.9435H12.2323V15.9313H11.2445V14.9435Z" fill="#AFAFAF" stroke="#AFAFAF" stroke-width="0.2"/>
<path d="M13.6199 14.9435H14.6076V15.9313H13.6199V14.9435Z" fill="#AFAFAF" stroke="#AFAFAF" stroke-width="0.2"/>
<path d="M25.4977 14.9435H26.4854V17.119H25.4977V14.9435Z" fill="#AFAFAF" stroke="#AFAFAF" stroke-width="0.2"/>
<path d="M23.122 14.9435H24.1097V17.119H23.122V14.9435Z" fill="#AFAFAF" stroke="#AFAFAF" stroke-width="0.2"/>
<path d="M20.7464 14.9435H21.7341V17.119H20.7464V14.9435Z" fill="#AFAFAF" stroke="#AFAFAF" stroke-width="0.2"/>
<path d="M33.8117 6.6293H34.7994V7.61704H33.8117V6.6293Z" fill="#AFAFAF" stroke="#AFAFAF" stroke-width="0.2"/>
<path d="M31.4363 6.6293H32.424V7.61704H31.4363V6.6293Z" fill="#AFAFAF" stroke="#AFAFAF" stroke-width="0.2"/>
<path d="M33.8117 11.38H34.7994V12.3678H33.8117V11.38Z" fill="#AFAFAF" stroke="#AFAFAF" stroke-width="0.2"/>
<path d="M31.4363 11.38H32.424V12.3678H31.4363V11.38Z" fill="#AFAFAF" stroke="#AFAFAF" stroke-width="0.2"/>
<path d="M33.8117 16.1311H34.7994V17.1189H33.8117V16.1311Z" fill="#AFAFAF" stroke="#AFAFAF" stroke-width="0.2"/>
<path d="M31.4363 16.1311H32.424V17.1189H31.4363V16.1311Z" fill="#AFAFAF" stroke="#AFAFAF" stroke-width="0.2"/>
<path d="M5.30593 6.6293H6.29368V7.61704H5.30593V6.6293Z" fill="#AFAFAF" stroke="#AFAFAF" stroke-width="0.2"/>
<path d="M2.93032 6.6293H3.91807V7.61704H2.93032V6.6293Z" fill="#AFAFAF" stroke="#AFAFAF" stroke-width="0.2"/>
<path d="M5.30593 11.38H6.29368V12.3678H5.30593V11.38Z" fill="#AFAFAF" stroke="#AFAFAF" stroke-width="0.2"/>
<path d="M2.93032 11.38H3.91807V12.3678H2.93032V11.38Z" fill="#AFAFAF" stroke="#AFAFAF" stroke-width="0.2"/>
<path d="M5.30593 16.1311H6.29368V17.1189H5.30593V16.1311Z" fill="#AFAFAF" stroke="#AFAFAF" stroke-width="0.2"/>
<path d="M2.93032 16.1311H3.91807V17.1189H2.93032V16.1311Z" fill="#AFAFAF" stroke="#AFAFAF" stroke-width="0.2"/>
<path d="M15.9954 30.8779C15.9954 29.296 17.2828 28.0086 18.8647 28.0086C20.4467 28.0086 21.7341 29.296 21.7341 30.8779C21.7341 32.4599 20.4467 33.7473 18.8647 33.7473C17.2828 33.7473 15.9954 32.4599 15.9954 30.8779ZM16.9831 30.8779C16.9831 31.9153 17.8274 32.7595 18.8647 32.7595C19.9021 32.7595 20.7464 31.9153 20.7464 30.8779C20.7464 29.8406 19.9021 28.9963 18.8647 28.9963C17.8274 28.9963 16.9831 29.8406 16.9831 30.8779Z" fill="#AFAFAF" stroke="#AFAFAF" stroke-width="0.2"/>
</svg>
