<svg width="36" height="36" viewBox="0 0 36 36" fill="none" xmlns="http://www.w3.org/2000/svg">
<mask id="path-1-outside-1_221_1774" maskUnits="userSpaceOnUse" x="-1.79918" y="-1.80462" width="39.598" height="39.598" fill="black">
<rect fill="white" x="-1.79918" y="-1.80462" width="39.598" height="39.598"/>
<path d="M7.71115 11.7912L9.43115 13.5112C9.7076 13.7877 9.78318 14.1676 9.63372 14.5288C9.48426 14.8901 9.1615 15.1052 8.771 15.1056L6.3391 15.1052C5.98162 15.1052 5.64525 15.2448 5.39262 15.4974C5.13966 15.7504 5.00042 16.0864 5.00007 16.4443L5.00008 19.5445C5.00008 20.2594 5.62277 20.8835 6.3391 20.8835L8.77066 20.8835C9.16116 20.8838 9.48528 21.099 9.63372 21.4599C9.78318 21.8211 9.7076 22.2011 9.43115 22.4775L7.71115 24.1975C7.18923 24.7195 7.18923 25.5686 7.71115 26.0905L9.9037 28.283C10.4256 28.805 11.2747 28.805 11.7967 28.283L13.5167 26.563C13.7931 26.2866 14.1731 26.211 14.5343 26.3605C14.8955 26.5086 15.1103 26.833 15.1107 27.2235L15.1107 29.6551C15.1107 30.3714 15.7347 30.9941 16.4497 30.9941L19.5499 30.9941C19.9074 30.9941 20.2438 30.8545 20.4967 30.6016C20.7494 30.3489 20.8886 30.0129 20.889 29.6551L20.8886 27.2232C20.8889 26.8327 21.1045 26.5103 21.4653 26.3605C21.8262 26.2107 22.2065 26.2866 22.483 26.563L24.203 28.283C24.7249 28.805 25.574 28.805 26.0959 28.283L28.2881 26.0908C28.8104 25.5686 28.8104 24.7195 28.2885 24.1975L26.5685 22.4775C26.292 22.2011 26.2164 21.8211 26.3659 21.4599C26.5154 21.0987 26.8381 20.8835 27.2286 20.8832L29.6605 20.8835C30.018 20.8835 30.3544 20.7439 30.607 20.4913C30.86 20.2383 30.9992 19.9023 30.9996 19.5445L30.9996 16.4443C30.9996 15.7286 30.3772 15.1049 29.6605 15.1052L27.2286 15.1056C26.8381 15.1052 26.5157 14.8904 26.3659 14.5288C26.2164 14.1676 26.292 13.7877 26.5685 13.5112L28.2885 11.7912C28.8104 11.2693 28.8104 10.4202 28.2885 9.89826L26.0963 7.70605C25.5743 7.18412 24.7252 7.18412 24.2033 7.70605L22.4833 9.42605C22.2069 9.7025 21.8269 9.77808 21.4657 9.62862C21.1038 9.47916 20.8893 9.1564 20.8889 8.76589L20.8893 6.334C20.8893 5.61767 20.2652 4.99497 19.5503 4.99497L16.45 4.99497C16.0926 4.99497 15.7562 5.13456 15.5032 5.38752C15.2506 5.64014 15.1114 5.97617 15.111 6.334L15.1114 8.7659C15.111 9.1564 14.8955 9.47882 14.5346 9.62862C14.1737 9.77842 13.7931 9.70216 13.5167 9.42571L11.7967 7.70571C11.2747 7.18378 10.4256 7.18378 9.9037 7.70571L7.71115 9.89826C7.18923 10.4202 7.18922 11.2693 7.71115 11.7912ZM10.5846 8.38663C10.731 8.24023 10.9693 8.24023 11.1157 8.38662L12.8357 10.1066C13.3886 10.6595 14.1809 10.8172 14.903 10.5179C15.6255 10.219 16.0745 9.54725 16.0742 8.76521L16.0738 6.33332C16.0738 6.12564 16.2424 5.95711 16.4497 5.95745L19.5499 5.95745C19.7569 5.95745 19.9261 6.1253 19.9258 6.33332L19.9254 8.76521C19.9254 9.54759 20.3749 10.2183 21.0966 10.5179C21.8187 10.8172 22.611 10.6595 23.1639 10.1066L24.8839 8.38662C25.0303 8.24023 25.2686 8.24023 25.415 8.38662L27.6076 10.5792C27.754 10.7256 27.754 10.9639 27.6076 11.1103L25.8876 12.8303C25.3347 13.3832 25.177 14.1754 25.4763 14.8976C25.5764 15.14 25.718 15.351 25.8923 15.5254C26.2376 15.8706 26.7084 16.0691 27.2286 16.0691L29.6605 16.0687C29.8689 16.0687 30.0367 16.2379 30.0364 16.4446L30.0364 19.5448C30.0364 19.7525 29.8679 19.921 29.6605 19.9207L27.2286 19.9203C26.4469 19.9203 25.7749 20.3691 25.476 21.0915C25.177 21.8133 25.3347 22.6055 25.8876 23.1585L27.6076 24.8784C27.754 25.0248 27.754 25.2632 27.6076 25.4096L25.415 27.6021C25.2686 27.7485 25.0303 27.7485 24.8839 27.6021L23.1639 25.8821C22.611 25.3292 21.8187 25.1716 21.0966 25.4708C20.3742 25.7698 19.9251 26.4415 19.9255 27.2235L19.9258 29.6554C19.9258 29.8631 19.7573 30.0316 19.5499 30.0313L16.4497 30.0313C16.2424 30.0316 16.0738 29.8631 16.0738 29.6554L16.0738 27.2239C16.0738 26.4429 15.6258 25.7708 14.9027 25.4712C14.1809 25.1716 13.3886 25.3292 12.8357 25.8821L11.1157 27.6021C10.9693 27.7485 10.731 27.7485 10.5846 27.6021L8.39241 25.4099C8.24567 25.2632 8.24567 25.0248 8.39207 24.8785L10.1121 23.1585C10.665 22.6055 10.8226 21.8133 10.5233 21.0912C10.2237 20.3681 9.55235 19.92 8.77066 19.92L6.3391 19.92C6.13108 19.9197 5.96255 19.7511 5.96323 19.5441L5.96323 16.4439C5.96323 16.2362 6.13176 16.0677 6.3391 16.0681L8.771 16.0684C9.55269 16.0684 10.2248 15.6197 10.5237 14.8972C10.8229 14.1751 10.6653 13.3829 10.1124 12.83L8.39241 11.11C8.24567 10.9639 8.24567 10.7256 8.39207 10.5792L10.5846 8.38663Z"/>
</mask>
<path d="M7.71115 11.7912L9.43115 13.5112C9.7076 13.7877 9.78318 14.1676 9.63372 14.5288C9.48426 14.8901 9.1615 15.1052 8.771 15.1056L6.3391 15.1052C5.98162 15.1052 5.64525 15.2448 5.39262 15.4974C5.13966 15.7504 5.00042 16.0864 5.00007 16.4443L5.00008 19.5445C5.00008 20.2594 5.62277 20.8835 6.3391 20.8835L8.77066 20.8835C9.16116 20.8838 9.48528 21.099 9.63372 21.4599C9.78318 21.8211 9.7076 22.2011 9.43115 22.4775L7.71115 24.1975C7.18923 24.7195 7.18923 25.5686 7.71115 26.0905L9.9037 28.283C10.4256 28.805 11.2747 28.805 11.7967 28.283L13.5167 26.563C13.7931 26.2866 14.1731 26.211 14.5343 26.3605C14.8955 26.5086 15.1103 26.833 15.1107 27.2235L15.1107 29.6551C15.1107 30.3714 15.7347 30.9941 16.4497 30.9941L19.5499 30.9941C19.9074 30.9941 20.2438 30.8545 20.4967 30.6016C20.7494 30.3489 20.8886 30.0129 20.889 29.6551L20.8886 27.2232C20.8889 26.8327 21.1045 26.5103 21.4653 26.3605C21.8262 26.2107 22.2065 26.2866 22.483 26.563L24.203 28.283C24.7249 28.805 25.574 28.805 26.0959 28.283L28.2881 26.0908C28.8104 25.5686 28.8104 24.7195 28.2885 24.1975L26.5685 22.4775C26.292 22.2011 26.2164 21.8211 26.3659 21.4599C26.5154 21.0987 26.8381 20.8835 27.2286 20.8832L29.6605 20.8835C30.018 20.8835 30.3544 20.7439 30.607 20.4913C30.86 20.2383 30.9992 19.9023 30.9996 19.5445L30.9996 16.4443C30.9996 15.7286 30.3772 15.1049 29.6605 15.1052L27.2286 15.1056C26.8381 15.1052 26.5157 14.8904 26.3659 14.5288C26.2164 14.1676 26.292 13.7877 26.5685 13.5112L28.2885 11.7912C28.8104 11.2693 28.8104 10.4202 28.2885 9.89826L26.0963 7.70605C25.5743 7.18412 24.7252 7.18412 24.2033 7.70605L22.4833 9.42605C22.2069 9.7025 21.8269 9.77808 21.4657 9.62862C21.1038 9.47916 20.8893 9.1564 20.8889 8.76589L20.8893 6.334C20.8893 5.61767 20.2652 4.99497 19.5503 4.99497L16.45 4.99497C16.0926 4.99497 15.7562 5.13456 15.5032 5.38752C15.2506 5.64014 15.1114 5.97617 15.111 6.334L15.1114 8.7659C15.111 9.1564 14.8955 9.47882 14.5346 9.62862C14.1737 9.77842 13.7931 9.70216 13.5167 9.42571L11.7967 7.70571C11.2747 7.18378 10.4256 7.18378 9.9037 7.70571L7.71115 9.89826C7.18923 10.4202 7.18922 11.2693 7.71115 11.7912ZM10.5846 8.38663C10.731 8.24023 10.9693 8.24023 11.1157 8.38662L12.8357 10.1066C13.3886 10.6595 14.1809 10.8172 14.903 10.5179C15.6255 10.219 16.0745 9.54725 16.0742 8.76521L16.0738 6.33332C16.0738 6.12564 16.2424 5.95711 16.4497 5.95745L19.5499 5.95745C19.7569 5.95745 19.9261 6.1253 19.9258 6.33332L19.9254 8.76521C19.9254 9.54759 20.3749 10.2183 21.0966 10.5179C21.8187 10.8172 22.611 10.6595 23.1639 10.1066L24.8839 8.38662C25.0303 8.24023 25.2686 8.24023 25.415 8.38662L27.6076 10.5792C27.754 10.7256 27.754 10.9639 27.6076 11.1103L25.8876 12.8303C25.3347 13.3832 25.177 14.1754 25.4763 14.8976C25.5764 15.14 25.718 15.351 25.8923 15.5254C26.2376 15.8706 26.7084 16.0691 27.2286 16.0691L29.6605 16.0687C29.8689 16.0687 30.0367 16.2379 30.0364 16.4446L30.0364 19.5448C30.0364 19.7525 29.8679 19.921 29.6605 19.9207L27.2286 19.9203C26.4469 19.9203 25.7749 20.3691 25.476 21.0915C25.177 21.8133 25.3347 22.6055 25.8876 23.1585L27.6076 24.8784C27.754 25.0248 27.754 25.2632 27.6076 25.4096L25.415 27.6021C25.2686 27.7485 25.0303 27.7485 24.8839 27.6021L23.1639 25.8821C22.611 25.3292 21.8187 25.1716 21.0966 25.4708C20.3742 25.7698 19.9251 26.4415 19.9255 27.2235L19.9258 29.6554C19.9258 29.8631 19.7573 30.0316 19.5499 30.0313L16.4497 30.0313C16.2424 30.0316 16.0738 29.8631 16.0738 29.6554L16.0738 27.2239C16.0738 26.4429 15.6258 25.7708 14.9027 25.4712C14.1809 25.1716 13.3886 25.3292 12.8357 25.8821L11.1157 27.6021C10.9693 27.7485 10.731 27.7485 10.5846 27.6021L8.39241 25.4099C8.24567 25.2632 8.24567 25.0248 8.39207 24.8785L10.1121 23.1585C10.665 22.6055 10.8226 21.8133 10.5233 21.0912C10.2237 20.3681 9.55235 19.92 8.77066 19.92L6.3391 19.92C6.13108 19.9197 5.96255 19.7511 5.96323 19.5441L5.96323 16.4439C5.96323 16.2362 6.13176 16.0677 6.3391 16.0681L8.771 16.0684C9.55269 16.0684 10.2248 15.6197 10.5237 14.8972C10.8229 14.1751 10.6653 13.3829 10.1124 12.83L8.39241 11.11C8.24567 10.9639 8.24567 10.7256 8.39207 10.5792L10.5846 8.38663Z" fill="#C91226"/>
<path d="M7.71115 11.7912L9.43115 13.5112C9.7076 13.7877 9.78318 14.1676 9.63372 14.5288C9.48426 14.8901 9.1615 15.1052 8.771 15.1056L6.3391 15.1052C5.98162 15.1052 5.64525 15.2448 5.39262 15.4974C5.13966 15.7504 5.00042 16.0864 5.00007 16.4443L5.00008 19.5445C5.00008 20.2594 5.62277 20.8835 6.3391 20.8835L8.77066 20.8835C9.16116 20.8838 9.48528 21.099 9.63372 21.4599C9.78318 21.8211 9.7076 22.2011 9.43115 22.4775L7.71115 24.1975C7.18923 24.7195 7.18923 25.5686 7.71115 26.0905L9.9037 28.283C10.4256 28.805 11.2747 28.805 11.7967 28.283L13.5167 26.563C13.7931 26.2866 14.1731 26.211 14.5343 26.3605C14.8955 26.5086 15.1103 26.833 15.1107 27.2235L15.1107 29.6551C15.1107 30.3714 15.7347 30.9941 16.4497 30.9941L19.5499 30.9941C19.9074 30.9941 20.2438 30.8545 20.4967 30.6016C20.7494 30.3489 20.8886 30.0129 20.889 29.6551L20.8886 27.2232C20.8889 26.8327 21.1045 26.5103 21.4653 26.3605C21.8262 26.2107 22.2065 26.2866 22.483 26.563L24.203 28.283C24.7249 28.805 25.574 28.805 26.0959 28.283L28.2881 26.0908C28.8104 25.5686 28.8104 24.7195 28.2885 24.1975L26.5685 22.4775C26.292 22.2011 26.2164 21.8211 26.3659 21.4599C26.5154 21.0987 26.8381 20.8835 27.2286 20.8832L29.6605 20.8835C30.018 20.8835 30.3544 20.7439 30.607 20.4913C30.86 20.2383 30.9992 19.9023 30.9996 19.5445L30.9996 16.4443C30.9996 15.7286 30.3772 15.1049 29.6605 15.1052L27.2286 15.1056C26.8381 15.1052 26.5157 14.8904 26.3659 14.5288C26.2164 14.1676 26.292 13.7877 26.5685 13.5112L28.2885 11.7912C28.8104 11.2693 28.8104 10.4202 28.2885 9.89826L26.0963 7.70605C25.5743 7.18412 24.7252 7.18412 24.2033 7.70605L22.4833 9.42605C22.2069 9.7025 21.8269 9.77808 21.4657 9.62862C21.1038 9.47916 20.8893 9.1564 20.8889 8.76589L20.8893 6.334C20.8893 5.61767 20.2652 4.99497 19.5503 4.99497L16.45 4.99497C16.0926 4.99497 15.7562 5.13456 15.5032 5.38752C15.2506 5.64014 15.1114 5.97617 15.111 6.334L15.1114 8.7659C15.111 9.1564 14.8955 9.47882 14.5346 9.62862C14.1737 9.77842 13.7931 9.70216 13.5167 9.42571L11.7967 7.70571C11.2747 7.18378 10.4256 7.18378 9.9037 7.70571L7.71115 9.89826C7.18923 10.4202 7.18922 11.2693 7.71115 11.7912ZM10.5846 8.38663C10.731 8.24023 10.9693 8.24023 11.1157 8.38662L12.8357 10.1066C13.3886 10.6595 14.1809 10.8172 14.903 10.5179C15.6255 10.219 16.0745 9.54725 16.0742 8.76521L16.0738 6.33332C16.0738 6.12564 16.2424 5.95711 16.4497 5.95745L19.5499 5.95745C19.7569 5.95745 19.9261 6.1253 19.9258 6.33332L19.9254 8.76521C19.9254 9.54759 20.3749 10.2183 21.0966 10.5179C21.8187 10.8172 22.611 10.6595 23.1639 10.1066L24.8839 8.38662C25.0303 8.24023 25.2686 8.24023 25.415 8.38662L27.6076 10.5792C27.754 10.7256 27.754 10.9639 27.6076 11.1103L25.8876 12.8303C25.3347 13.3832 25.177 14.1754 25.4763 14.8976C25.5764 15.14 25.718 15.351 25.8923 15.5254C26.2376 15.8706 26.7084 16.0691 27.2286 16.0691L29.6605 16.0687C29.8689 16.0687 30.0367 16.2379 30.0364 16.4446L30.0364 19.5448C30.0364 19.7525 29.8679 19.921 29.6605 19.9207L27.2286 19.9203C26.4469 19.9203 25.7749 20.3691 25.476 21.0915C25.177 21.8133 25.3347 22.6055 25.8876 23.1585L27.6076 24.8784C27.754 25.0248 27.754 25.2632 27.6076 25.4096L25.415 27.6021C25.2686 27.7485 25.0303 27.7485 24.8839 27.6021L23.1639 25.8821C22.611 25.3292 21.8187 25.1716 21.0966 25.4708C20.3742 25.7698 19.9251 26.4415 19.9255 27.2235L19.9258 29.6554C19.9258 29.8631 19.7573 30.0316 19.5499 30.0313L16.4497 30.0313C16.2424 30.0316 16.0738 29.8631 16.0738 29.6554L16.0738 27.2239C16.0738 26.4429 15.6258 25.7708 14.9027 25.4712C14.1809 25.1716 13.3886 25.3292 12.8357 25.8821L11.1157 27.6021C10.9693 27.7485 10.731 27.7485 10.5846 27.6021L8.39241 25.4099C8.24567 25.2632 8.24567 25.0248 8.39207 24.8785L10.1121 23.1585C10.665 22.6055 10.8226 21.8133 10.5233 21.0912C10.2237 20.3681 9.55235 19.92 8.77066 19.92L6.3391 19.92C6.13108 19.9197 5.96255 19.7511 5.96323 19.5441L5.96323 16.4439C5.96323 16.2362 6.13176 16.0677 6.3391 16.0681L8.771 16.0684C9.55269 16.0684 10.2248 15.6197 10.5237 14.8972C10.8229 14.1751 10.6653 13.3829 10.1124 12.83L8.39241 11.11C8.24567 10.9639 8.24567 10.7256 8.39207 10.5792L10.5846 8.38663Z" stroke="#C91226" stroke-width="0.4" mask="url(#path-1-outside-1_221_1774)"/>
<path d="M14.8652 21.1294C16.5939 22.8581 19.4061 22.8581 21.1348 21.1294C22.8636 19.4006 22.8636 16.5885 21.1348 14.8597C19.4061 13.131 16.5939 13.131 14.8652 14.8597C13.1364 16.5885 13.1364 19.4006 14.8652 21.1294ZM20.3125 15.682C21.5873 16.9568 21.5873 19.0323 20.3125 20.307C19.0377 21.5818 16.9623 21.5818 15.6875 20.307C14.4127 19.0323 14.4127 16.9568 15.6875 15.682C16.9623 14.4073 19.0377 14.4073 20.3125 15.682Z" fill="#C91226" stroke="#C91226" stroke-width="0.2"/>
</svg>
